<?xml version="1.0" standalone="no"?>
<!DOCTYPE svg PUBLIC "-//W3C//DTD SVG 20010904//EN"
 "http://www.w3.org/TR/2001/REC-SVG-20010904/DTD/svg10.dtd">
<svg version="1.0" xmlns="http://www.w3.org/2000/svg"
 width="300.000000pt" height="300.000000pt" viewBox="0 0 300.000000 300.000000"
 preserveAspectRatio="xMidYMid meet">
<metadata>
Created by potrace 1.10, written by Peter Selinger 2001-2011
</metadata>
<g transform="translate(0.000000,300.000000) scale(0.100000,-0.100000)"
fill="#000000" stroke="none">
<path d="M1400 2440 c-223 -22 -427 -125 -586 -293 -172 -182 -256 -396 -256
-647 0 -251 84 -465 256 -647 187 -198 415 -296 691 -295 215 0 391 53 549
166 262 187 394 545 340 919 l-6 37 -444 0 -444 0 0 -185 0 -186 253 1 c138 0
255 0 259 0 12 0 -31 -112 -63 -161 -63 -99 -174 -174 -301 -204 -82 -19 -208
-19 -282 0 -181 47 -343 201 -402 382 -28 86 -26 276 4 357 67 183 219 324
398 371 72 19 202 19 270 1 63 -17 145 -57 194 -96 l36 -29 135 135 134 135
-35 30 c-184 155 -450 235 -700 209z m310 -49 c111 -27 141 -38 225 -85 82
-46 145 -93 145 -109 0 -6 -40 -50 -89 -97 -144 -139 -122 -128 -183 -88 -88
57 -160 79 -279 85 -91 5 -117 3 -180 -17 -161 -48 -277 -140 -363 -288 l-43
-73 -96 74 c-134 102 -160 126 -153 144 10 25 73 115 112 162 46 53 171 161
210 181 16 8 40 22 54 30 42 28 170 71 265 90 115 23 259 19 375 -9z m-891
-591 c72 -56 131 -105 131 -109 0 -4 -4 -11 -9 -16 -12 -15 -31 -121 -31 -179
0 -47 18 -139 34 -177 6 -13 -24 -41 -131 -123 -76 -58 -140 -106 -143 -106
-3 0 -11 19 -17 43 -6 23 -23 79 -37 124 -50 162 -42 398 20 554 13 35 24 71
24 82 0 28 12 21 159 -93z m1549 -167 c4 -10 7 -85 7 -168 -1 -171 -22 -274
-81 -403 -52 -115 -171 -271 -196 -256 -30 17 -258 197 -258 203 0 4 13 11 28
17 80 31 199 269 150 301 -7 4 -119 10 -248 13 l-235 5 -3 140 c-1 76 0 145 2
152 4 10 89 13 416 13 382 0 411 -1 418 -17z m-1377 -433 c81 -144 187 -228
353 -279 128 -39 309 -24 428 35 26 13 53 24 59 24 12 0 90 -56 139 -100 14
-12 44 -36 68 -52 24 -16 41 -35 39 -41 -2 -6 -28 -28 -57 -48 -152 -104 -306
-151 -505 -151 -260 -1 -467 81 -650 257 -83 80 -165 192 -165 226 0 20 226
202 244 196 6 -2 27 -32 47 -67z"/>
</g>
</svg>
