<?xml version="1.0" encoding="UTF-8"?> <svg xmlns="http://www.w3.org/2000/svg" id="Layer_1" data-name="Layer 1" viewBox="0 0 398.25 78.32"><defs><style>.cls-1{fill:#f60;}.cls-2,.cls-3{fill:#fff;}.cls-3{fill-rule:evenodd;}</style></defs><polygon class="cls-1" points="13.18 55.23 13.18 59.19 0 59.19 0 1.73 13.18 1.73 13.18 5.69 4.9 5.69 4.9 55.23 13.18 55.23 13.18 55.23"></polygon><path class="cls-1" d="M30.24,20.23c-3.74,0-5.83,2.16-5.83,4.76,0,2.88,2.09,4.17,6.62,5.9,6,2.3,9.15,5.33,9.15,10.51,0,6.12-4.75,10.52-13,10.52a19.88,19.88,0,0,1-9.79-2.45l1.59-4.83a16.53,16.53,0,0,0,8.35,2.52c4.61,0,6.77-2.3,6.77-5.18s-1.8-4.68-6.48-6.41c-6.27-2.23-9.22-5.69-9.22-9.86,0-5.62,4.54-10.23,12-10.23A17.39,17.39,0,0,1,39,17.64l-1.58,4.61a13.52,13.52,0,0,0-7.13-2Z"></path><path class="cls-1" d="M72.65,16.27l-.21,5.26h-.15c-1.73-3.38-5.33-6.05-10.73-6.05-7.34,0-15.77,5.76-15.77,18.8,0,10.58,6.63,17.64,14.76,17.64,5.62,0,9.51-2.74,11.38-6.2h.15V65.38h6.33V25.85c0-3.6.07-6.62.22-9.58Zm-.57,20.67a10.5,10.5,0,0,1-.51,3,9.45,9.45,0,0,1-9.07,6.92c-7,0-10.3-6.05-10.3-13,0-7.84,4-13.39,10.51-13.39a9.26,9.26,0,0,1,9.08,7.2,11.1,11.1,0,0,1,.29,2.67Z"></path><polygon class="cls-1" points="88.85 51.12 88.85 0 95.18 0 95.18 51.12 88.85 51.12 88.85 51.12"></polygon><polygon class="cls-1" points="101.95 59.19 101.95 55.23 110.23 55.23 110.23 5.69 101.95 5.69 101.95 1.73 115.13 1.73 115.13 59.19 101.95 59.19 101.95 59.19"></polygon><path class="cls-2" d="M158.18,51.12h-8.75l-3-15.36c-.69-3.61-1.27-6.95-1.69-11h-.11c-.63,4-1.22,7.42-2.07,11l-3.39,15.36H130.3l-8.48-35.71h8.64l2.71,14.67c.79,4.3,1.53,8.91,2.11,12.51h.11c.58-3.87,1.43-8.16,2.33-12.56l3-14.62h8.59l2.86,15.05c.8,4.18,1.38,8,1.91,12h.1c.53-4,1.33-8.16,2.07-12.4l2.92-14.62h8.21l-9.22,35.71Z"></path><path class="cls-2" d="M187.65,15.41h-10.6L166.13,51.12h8.38L177.05,42h10.23L190,51.12h8.69Zm-9.43,20.5,2.12-7.57c.58-2.07,1.11-4.77,1.64-6.89h.11c.52,2.12,1.16,4.77,1.8,6.89l2.22,7.57Z"></path><polygon class="cls-2" points="214.09 22.19 214.09 51.12 205.99 51.12 205.99 22.19 196.4 22.19 196.4 15.4 223.85 15.4 223.85 22.19 214.09 22.19 214.09 22.19"></polygon><path class="cls-2" d="M251.62,22.82a17.59,17.59,0,0,0-6.78-1.32c-6.42,0-11.4,3.87-11.4,11.82,0,7.15,4.24,11.66,11.45,11.66a20.06,20.06,0,0,0,6.73-1.17l1.22,6.31a22.88,22.88,0,0,1-9.17,1.59C231.32,51.71,225,44,225,33.79c0-12.18,8.69-19,19.5-19a21.09,21.09,0,0,1,8.8,1.59l-1.64,6.41Z"></path><polygon class="cls-2" points="279.55 51.12 279.55 36.18 266.25 36.18 266.25 51.12 258.14 51.12 258.14 15.4 266.25 15.4 266.25 29.13 279.55 29.13 279.55 15.4 287.6 15.4 287.6 51.12 279.55 51.12 279.55 51.12"></polygon><path class="cls-2" d="M325.39,51.12l-.53-13.67c-.16-4.29-.32-9.48-.32-14.68h-.16c-1.11,4.56-2.59,9.65-4,13.83l-4.34,13.94h-6.31l-3.82-13.78c-1.16-4.24-2.38-9.33-3.23-14h-.11c-.21,4.82-.37,10.34-.63,14.79l-.64,13.56h-7.47l2.28-35.71H306.9l3.49,11.92c1.12,4.08,2.23,8.58,3,12.77h.16c1-4.13,2.22-8.85,3.39-12.82l3.81-11.87h10.55l2,35.71Z"></path><path class="cls-2" d="M389.77,51.12l-7.63-13.78a131.79,131.79,0,0,1-6.2-12.61l-.16.06c.21,4.71.32,9.75.32,15.58V51.12h-7.42V15.41h9.43l7.42,13.09a103.15,103.15,0,0,1,5.83,12.24h.16a133,133,0,0,1-.69-15V15.41h7.42V51.12Z"></path><path class="cls-2" d="M134,72a5,5,0,0,1-3.71,1.33,5.37,5.37,0,0,1-1.26-.11v4.86h-1.57v-12a19,19,0,0,1,3-.23,5,5,0,0,1,3.4,1,3.24,3.24,0,0,1,1.07,2.53A3.6,3.6,0,0,1,134,72Zm-3.49-4.9a6.07,6.07,0,0,0-1.48.13V72a5.26,5.26,0,0,0,1.3.13c1.89,0,3-.92,3-2.59s-1.14-2.38-2.86-2.38Zm16.21,5.15v0a3,3,0,0,1,1.79,2.45,17.8,17.8,0,0,0,.94,3.33h-1.63a17.66,17.66,0,0,1-.81-2.89c-.36-1.68-1-2.31-2.43-2.36h-1.47v5.25h-1.57v-12a16.53,16.53,0,0,1,3-.25,5,5,0,0,1,3.51,1,3,3,0,0,1,.95,2.3,3.18,3.18,0,0,1-2.29,3.1Zm-2.07-5.19a6.4,6.4,0,0,0-1.54.15v4.43h1.6c1.67,0,2.73-.92,2.73-2.31,0-1.56-1.13-2.25-2.79-2.27Zm15.86,11.22c-3.2,0-5.45-2.48-5.45-6.16,0-3.85,2.39-6.37,5.63-6.37s5.46,2.54,5.46,6.14c0,4.18-2.54,6.39-5.64,6.39Zm.11-11.25c-2.59,0-3.89,2.39-3.89,5.06S158.14,77,160.6,77s3.89-2.28,3.89-5c0-2.41-1.26-4.93-3.87-4.93Zm15.5.25v10.8h-1.59V67.32h-3.69V66h9v1.33Zm16.38,9.49v1.31h-6.83V66h6.56V67.3h-5v3.84H192v1.29h-4.72v4.38Zm14.65-9.2a5.66,5.66,0,0,0-2.45-.51c-2.84,0-4.73,1.82-4.73,5,0,3,1.71,4.88,4.66,4.88a6.37,6.37,0,0,0,2.56-.5l.32,1.24a7.71,7.71,0,0,1-3.2.59c-3.42,0-6-2.18-6-6.16a6,6,0,0,1,6.34-6.37,6.44,6.44,0,0,1,2.88.54l-.38,1.28Zm11.21-.29v10.8h-1.58V67.32h-3.69V66h9v1.33Zm9.56,10.8V66h1.57V78.12Zm16.33,0L240.4,72a37,37,0,0,1-2.27-4.06l-.06,0c.09,1.53.13,3,.13,5v5.18h-1.48V66h1.71l3.89,6.14a33.47,33.47,0,0,1,2.18,3.94l0,0c-.15-1.62-.18-3.09-.18-5V66h1.47V78.12ZM258.31,73V71.75h4v5.83a11,11,0,0,1-3.72.67,5.69,5.69,0,0,1-6.23-6.12c0-3.62,2.5-6.27,6.57-6.27a7.51,7.51,0,0,1,3,.56l-.37,1.28a6.29,6.29,0,0,0-2.69-.52A4.54,4.54,0,0,0,254,72.06c0,3.08,1.86,4.89,4.69,4.89a5.1,5.1,0,0,0,2.08-.32V73ZM281,73v5.16h-1.59V73l-3.83-7h1.78L279,69.34c.47.91.83,1.65,1.21,2.5h0c.35-.79.76-1.59,1.23-2.5L283.25,66H285L281,73Zm14,5.36c-3.21,0-5.46-2.48-5.46-6.16,0-3.85,2.4-6.37,5.64-6.37s5.45,2.54,5.45,6.14c0,4.18-2.53,6.39-5.63,6.39Zm.11-11.25c-2.6,0-3.89,2.39-3.89,5.06S292.63,77,295.1,77,299,74.76,299,72c0-2.41-1.26-4.93-3.87-4.93Zm16.39,11.25c-2.48,0-4.35-1.42-4.35-5.18V66h1.58v7.18c0,2.72,1.21,3.87,2.83,3.87,1.8,0,2.95-1.18,2.95-3.87V66h1.58v7.07c0,3.73-2,5.26-4.59,5.26Zm17-6v0a3,3,0,0,1,1.78,2.45,18.94,18.94,0,0,0,.93,3.33h-1.61a16.32,16.32,0,0,1-.82-2.89c-.36-1.68-1-2.31-2.43-2.36h-1.47v5.25h-1.57v-12a16.53,16.53,0,0,1,3-.25,5,5,0,0,1,3.51,1,3,3,0,0,1,1,2.3,3.19,3.19,0,0,1-2.28,3.1Zm-2.07-5.19a6.43,6.43,0,0,0-1.55.15v4.43h1.6c1.67,0,2.74-.92,2.74-2.31,0-1.56-1.14-2.25-2.79-2.27ZM354,76.49a7.49,7.49,0,0,1-5.36,1.74,25.42,25.42,0,0,1-2.85-.14V66.15a23,23,0,0,1,3.33-.25,7,7,0,0,1,4.92,1.51,5.6,5.6,0,0,1,1.71,4.36A6.45,6.45,0,0,1,354,76.49Zm-4.81-9.35a8.83,8.83,0,0,0-1.83.16v9.58A10,10,0,0,0,349,77c3.35,0,5.17-1.87,5.17-5.15,0-2.86-1.6-4.68-4.92-4.68Zm20.4,11-1.3-3.81H364l-1.26,3.81h-1.62L365.26,66h1.89l4.14,12.13Zm-2.81-8.53c-.27-.79-.45-1.51-.63-2.22h0c-.18.72-.38,1.46-.61,2.2l-1.19,3.51H368l-1.19-3.49Zm13.27-2.27v10.8h-1.59V67.32H374.8V66h9v1.33Zm15.76,10.8-1.29-3.81h-4.31L389,78.12h-1.62L391.49,66h1.89l4.14,12.13ZM393,69.59c-.27-.79-.46-1.51-.64-2.22h0c-.18.72-.38,1.46-.61,2.2l-1.19,3.51h3.65L393,69.59Z"></path><polygon class="cls-3" points="339.2 44.62 363.02 44.62 363.02 50.89 339.2 50.89 339.2 44.62 339.2 44.62"></polygon><polygon class="cls-3" points="339.2 29.98 363.02 29.98 363.02 36.89 339.2 36.89 339.2 29.98 339.2 29.98"></polygon><polygon class="cls-3" points="339.2 15.62 363.02 15.62 363.02 21.89 339.2 21.89 339.2 15.62 339.2 15.62"></polygon></svg> 